# xmcd CD database file
#
# Track frame offsets:
#	150
#	24265
#	44775
#	56777
#	81072
#	99975
#	119382
#	142890
#	165222
#	183137
#	200357
#	223250
#
# Disc length: 3164 seconds
#
# Revision: 1
# Processed by: cddbd v1.4PL0 Copyright (c) Steve Scherf et al.
# Submitted via: CDex 1.40Beta4
#
DISCID=9d0c5a0c
DTITLE=Various Artist - Bluesman
DYEAR=1900
DGENRE=Blues
TTITLE0=Stevie Ray Vaughan/Texas Flood
TTITLE1=Omar and The Howlers/Down In Mississippi
TTITLE2=Fleetwood Mac/Coming Home
TTITLE3=Q. Stone/One Moment
TTITLE4=The Fabulous Thunderbirds/It Takes A Big Man To Cry
TTITLE5=Johnny Winter/Everybodys Blues
TTITLE6=The Allman Brothers Band/Midnight Blues
TTITLE7=Jeff Beck Group/Tonight I´ll Stay Here With You
TTITLE8=Muddy Waters/I´m Your Hoochie Coochie Man
TTITLE9=Q. Stone/You Should Know
TTITLE10=The Vaughan Brothers/Brothers
TTITLE11=Taj Mahal/Fishin´Blues
EXTD=ID3G:   0
EXTT0=
EXTT1=
EXTT2=
EXTT3=
EXTT4=
EXTT5=
EXTT6=
EXTT7=
EXTT8=
EXTT9=
EXTT10=
EXTT11=
PLAYORDER=
